 <svg  version="1.0" xmlns="http://www.w3.org/2000/svg"  width="900.000000pt" height="933.000000pt" viewBox="0 0 900.000000 933.000000"  preserveAspectRatio="xMidYMid meet">  <g transform="translate(0.000000,933.000000) scale(0.100000,-0.100000)" fill="#256a33" stroke="none"> <path d="M4265 9039 c-167 -7 -363 -25 -425 -38 -61 -13 -157 -31 -200 -37 -19 -3 -57 -11 -85 -19 -27 -7 -75 -20 -105 -29 -358 -97 -719 -241 -940 -375 -19 -11 -44 -25 -56 -30 -12 -5 -48 -26 -80 -47 -417 -262 -581 -390 -874 -684 -513 -514 -841 -1073 -1044 -1780 -60 -211 -86 -346 -123 -640 -25 -204 -25 -810 0 -980 24 -156 45 -274 62 -340 8 -30 24 -96 35 -146 26 -121 105 -355 182 -545 56 -140 203 -442 231 -479 7 -8 21 -31 31 -50 55 -100 243 -373 271 -392 5 -4 137 -8 292 -8 155 0 288 -3 297 -6 14 -6 16 -114 16 -1125 0 -758 3 -1125 10 -1141 18 -38 74 -68 128 -68 40 0 54 5 77 28 47 46 59 87 65 217 l5 120 120 -3 c66 -2 156 -10 200 -18 44 -7 105 -14 135 -14 30 0 125 -6 210 -15 169 -16 427 -36 785 -60 127 -8 300 -21 385 -27 222 -18 810 -17 875 1 84 22 157 49 212 75 29 14 55 26 57 26 2 0 52 28 112 63 95 55 170 103 467 303 32 21 66 44 75 49 9 6 41 28 72 51 30 22 73 51 95 64 22 13 76 47 120 75 44 29 87 55 95 59 17 8 35 19 95 57 22 14 56 34 75 45 19 10 42 24 50 30 8 6 38 24 65 39 124 68 492 294 607 373 245 169 369 272 588 492 179 178 272 287 363 420 9 14 32 48 51 75 146 216 317 531 393 725 76 195 144 404 188 580 9 36 23 88 31 116 8 28 14 64 14 81 0 17 7 50 15 73 8 23 15 58 15 77 0 19 6 74 14 122 47 282 47 757 1 1032 -8 47 -15 99 -15 115 0 26 -15 100 -41 209 -6 22 -14 60 -19 85 -5 25 -13 59 -18 75 -6 17 -18 57 -27 90 -32 111 -144 439 -170 500 -15 33 -36 80 -46 105 -95 217 -301 561 -478 795 -183 243 -533 593 -786 785 -130 99 -352 244 -524 343 -115 67 -382 194 -491 235 -181 68 -469 161 -565 182 -106 23 -143 32 -185 42 -44 11 -70 15 -240 37 -227 29 -514 41 -745 30z m600 -309 c232 -30 339 -49 485 -85 236 -59 258 -66 530 -170 101 -39 405 -186 505 -244 159 -92 457 -301 602 -423 154 -129 381 -362 523 -538 45 -57 204 -281 255 -362 89 -140 221 -395 279 -538 15 -36 31 -74 35 -85 5 -11 15 -38 24 -60 8 -22 22 -58 31 -80 8 -22 29 -85 46 -140 17 -55 36 -116 42 -135 13 -40 22 -82 42 -190 8 -41 21 -113 30 -160 77 -411 65 -1022 -29 -1430 -8 -36 -19 -88 -25 -115 -6 -28 -21 -82 -35 -119 -14 -38 -25 -75 -25 -83 0 -8 -6 -29 -14 -46 -7 -18 -20 -50 -29 -72 -106 -277 -153 -381 -286 -630 -28 -52 -94 -158 -130 -210 -19 -27 -55 -79 -79 -115 -93 -136 -386 -447 -523 -557 -176 -140 -206 -164 -224 -181 -32 -30 -186 -134 -191 -129 -2 2 22 42 53 89 149 220 255 375 272 398 58 77 305 466 393 618 39 67 68 170 68 240 0 67 -31 164 -77 239 -36 59 -140 132 -227 159 -92 29 -213 25 -294 -9 -74 -31 -163 -83 -252 -149 -219 -161 -350 -254 -495 -353 -120 -82 -267 -187 -297 -215 -9 -8 -35 -26 -58 -40 -24 -14 -59 -40 -80 -58 -28 -24 -40 -29 -46 -20 -5 7 -9 843 -11 1858 -2 1015 -6 1869 -9 1898 -4 36 -12 59 -27 73 -52 50 -66 54 -207 59 l-135 5 -5 261 c-4 235 -7 264 -23 282 -10 11 -29 23 -43 26 -13 4 -26 16 -29 29 -3 12 -6 138 -8 279 -2 242 -3 258 -23 284 -11 15 -33 37 -48 48 -27 21 -41 21 -654 26 -345 3 -658 2 -696 -3 -82 -10 -114 -31 -138 -90 -14 -36 -17 -81 -17 -295 l-1 -253 -34 -20 c-20 -11 -39 -33 -45 -51 -7 -19 -11 -126 -11 -274 0 -134 -4 -245 -8 -248 -4 -2 -63 -6 -131 -8 -145 -3 -184 -18 -216 -83 -20 -39 -20 -62 -22 -1135 -1 -602 -5 -1456 -9 -1897 l-6 -803 -159 0 c-153 0 -192 -4 -329 -36 -179 -42 -471 -172 -547 -243 -37 -35 -43 -26 -43 62 -1 108 -26 162 -90 195 -45 24 -45 24 -321 17 l-275 -7 -32 27 c-114 95 -416 676 -518 993 -13 42 -29 92 -35 111 -31 96 -88 343 -109 476 -55 342 -53 858 5 1203 34 206 95 465 136 582 29 85 42 116 119 298 144 343 238 505 463 807 109 145 184 231 342 393 373 384 767 649 1320 889 78 34 285 105 455 156 413 124 935 165 1375 107z m13 -1319 l-3 -156 -490 0 -490 0 -3 135 c-1 74 0 145 3 157 l5 23 478 2 c262 2 483 1 490 -1 10 -2 12 -40 10 -160z m87 -463 c8 -8 15 -62 18 -150 4 -117 3 -139 -10 -150 -21 -17 -1148 -17 -1165 0 -7 7 -12 66 -13 152 -1 148 4 168 43 158 11 -3 37 -2 58 3 21 5 268 6 548 4 403 -3 512 -6 521 -17z m384 -622 c9 -11 12 -469 10 -1879 -1 -1026 -4 -1869 -8 -1874 -3 -6 -118 -10 -281 -10 -151 0 -405 -5 -565 -12 -424 -16 -779 -15 -835 4 -25 8 -85 27 -135 43 -76 24 -92 33 -104 58 -12 25 -15 299 -19 1846 l-5 1818 24 9 c15 6 393 10 965 10 798 1 943 -1 953 -13z m1761 -3031 c44 -23 80 -76 80 -118 0 -43 -64 -171 -134 -268 -25 -35 -80 -113 -121 -174 -41 -60 -119 -174 -172 -252 -54 -78 -116 -172 -138 -209 -22 -36 -45 -71 -50 -78 -6 -6 -32 -45 -60 -86 -120 -182 -293 -402 -404 -515 -183 -186 -425 -386 -711 -588 -390 -276 -405 -286 -498 -332 -48 -24 -123 -53 -167 -65 -141 -38 -509 -38 -1000 0 -71 5 -224 16 -340 25 -115 8 -293 22 -395 30 -102 9 -257 20 -345 25 -88 4 -167 11 -175 14 -8 4 -109 10 -223 15 -162 6 -211 11 -218 22 -4 8 -7 306 -6 663 l2 649 60 43 c242 174 455 265 695 299 165 23 315 18 460 -17 25 -6 63 -14 85 -18 22 -4 85 -24 140 -45 182 -67 183 -67 514 -72 167 -3 395 0 505 6 111 6 372 14 581 17 420 6 416 5 565 76 208 99 298 94 391 -24 37 -47 41 -57 36 -95 -10 -94 -103 -221 -185 -256 -144 -60 -190 -64 -812 -77 -521 -10 -549 -12 -655 -60 -118 -54 -341 -212 -399 -283 -60 -74 -57 -148 10 -207 65 -56 137 -35 277 82 78 65 156 115 210 135 57 21 208 30 772 47 264 8 504 19 533 25 149 28 287 110 408 241 69 74 123 228 124 350 0 57 -26 165 -53 216 -26 50 -89 115 -144 151 -29 18 -53 40 -53 48 0 17 80 82 290 235 91 66 202 148 248 182 190 144 311 221 392 251 27 10 50 7 80 -8z"/> <path d="M2597 6707 c-8 -6 -22 -27 -29 -46 -10 -24 -23 -37 -48 -45 -42 -13 -54 -50 -20 -61 30 -10 56 -37 67 -71 14 -42 42 -41 83 1 18 19 40 35 47 35 18 0 53 41 53 62 0 13 -15 25 -43 37 -30 13 -48 28 -56 50 -18 42 -34 54 -54 38z"/> <path d="M6204 6651 c-76 -47 -83 -98 -21 -165 58 -62 87 -62 150 -1 25 25 49 55 52 65 9 30 -22 78 -65 100 -49 25 -76 25 -116 1z"/> <path d="M2048 6203 c-81 -42 -102 -137 -47 -212 18 -23 43 -47 56 -52 61 -23 152 0 197 50 29 32 31 99 4 146 -45 77 -137 107 -210 68z"/> <path d="M6663 6194 c-36 -28 -53 -74 -53 -147 0 -42 5 -54 33 -82 36 -36 87 -51 140 -41 46 9 103 70 118 127 11 40 10 50 -7 85 -28 57 -74 84 -143 84 -45 0 -62 -5 -88 -26z"/> <path d="M1747 5724 c-43 -23 -77 -86 -77 -142 0 -54 15 -81 64 -111 101 -63 240 24 221 137 -18 106 -120 163 -208 116z"/> <path d="M6982 5717 c-42 -24 -66 -76 -66 -141 1 -57 3 -62 39 -93 69 -60 160 -54 212 14 23 30 28 46 28 95 0 53 -3 61 -36 94 -31 31 -43 36 -95 40 -39 3 -67 0 -82 -9z"/> <path d="M6428 5085 c-2 -3 -3 -52 -1 -110 2 -77 8 -113 19 -131 20 -29 48 -28 52 3 2 12 10 27 18 33 18 16 18 44 -1 60 -7 6 -17 32 -21 56 -8 57 -46 108 -66 89z"/> <path d="M6436 4785 c-11 -11 -16 -34 -16 -70 0 -30 -4 -65 -10 -79 -7 -19 -6 -35 5 -59 7 -17 17 -49 20 -69 3 -21 10 -38 16 -38 14 0 50 84 49 117 0 16 0 60 0 99 -1 61 -4 74 -24 93 -22 20 -25 21 -40 6z"/> <path d="M1257 4703 c-2 -5 -7 -25 -11 -45 -8 -42 -16 -50 -65 -57 -18 -3 -39 -14 -44 -23 -16 -25 17 -58 58 -58 38 0 55 -16 55 -50 0 -28 16 -50 36 -50 12 0 16 9 28 61 5 23 13 28 50 33 86 13 101 77 20 84 -43 4 -54 14 -54 54 0 15 -7 34 -16 42 -16 17 -50 21 -57 9z"/> <path d="M7540 4684 c-6 -14 -10 -32 -10 -39 0 -20 -40 -45 -71 -45 -14 0 -34 -9 -43 -19 -16 -18 -16 -20 11 -39 16 -11 44 -22 63 -24 29 -2 36 -7 38 -28 9 -86 34 -100 62 -36 21 50 27 55 90 77 37 13 45 20 45 40 0 20 -7 26 -40 34 -52 13 -65 22 -65 46 0 23 -34 59 -55 59 -9 0 -20 -12 -25 -26z"/> <path d="M1734 4476 c-17 -7 -45 -31 -62 -52 -56 -68 -37 -167 40 -214 100 -61 227 29 215 153 -2 27 -12 56 -23 68 -42 47 -120 67 -170 45z"/> <path d="M6998 4469 c-56 -29 -81 -71 -80 -134 0 -43 6 -62 27 -89 44 -58 116 -75 177 -42 48 26 71 63 76 120 5 62 -24 112 -78 137 -59 27 -83 29 -122 8z"/> <path d="M2143 3968 c-10 -18 -20 -58 -23 -88 l-5 -55 -45 -2 c-25 0 -51 -2 -57 -2 -7 -1 -13 -12 -13 -24 0 -19 11 -28 55 -47 66 -28 80 -43 89 -93 13 -71 62 -61 82 18 17 63 42 88 100 95 82 9 67 45 -25 63 -54 10 -63 15 -67 37 -14 59 -43 125 -57 128 -9 2 -23 -10 -34 -30z"/> <path d="M3734 6025 c-25 -25 -26 -29 -22 -145 2 -65 7 -122 11 -127 5 -4 48 -10 96 -11 65 -3 90 0 98 10 14 16 21 231 10 264 -9 26 -33 34 -110 34 -49 0 -62 -4 -83 -25z"/> <path d="M4299 6033 c-11 -12 -13 -47 -11 -142 1 -69 7 -130 12 -135 5 -5 50 -11 99 -14 l89 -4 6 29 c3 15 7 78 9 139 3 142 2 144 -108 144 -65 0 -86 -4 -96 -17z"/> <path d="M4872 6034 c-21 -14 -22 -22 -22 -145 l0 -129 26 -10 c42 -16 159 -13 174 5 18 22 27 244 11 273 -10 20 -20 22 -89 22 -54 0 -84 -5 -100 -16z"/> <path d="M4925 5333 c-27 -3 -55 -9 -62 -15 -16 -13 -18 -244 -3 -268 14 -23 171 -28 190 -6 9 11 15 57 18 139 6 164 9 161 -143 150z"/> <path d="M3721 5311 c-16 -30 -12 -222 5 -248 13 -21 22 -23 98 -23 58 0 87 4 95 14 13 16 20 245 8 264 -6 8 -38 12 -102 12 -82 0 -96 -2 -104 -19z"/> <path d="M4294 5318 c-13 -21 -5 -251 9 -264 7 -6 49 -14 95 -17 82 -6 83 -6 92 19 13 32 17 222 7 252 -8 21 -14 22 -102 22 -64 0 -96 -4 -101 -12z"/> <path d="M3800 4631 c-72 -8 -80 -24 -80 -161 0 -142 6 -150 105 -150 86 0 105 12 105 68 0 20 3 73 6 117 9 117 -15 139 -136 126z"/> <path d="M4310 4620 c-18 -18 -20 -33 -20 -149 0 -91 4 -131 13 -139 18 -14 159 -24 177 -13 21 14 22 297 2 310 -8 5 -45 9 -82 10 -58 1 -73 -2 -90 -19z"/> <path d="M4923 4633 c-65 -6 -73 -25 -73 -165 0 -111 1 -118 23 -132 31 -21 165 -25 177 -6 10 17 24 143 23 218 0 34 -6 59 -15 69 -17 16 -71 23 -135 16z"/> <path d="M4915 3913 c-59 -9 -65 -23 -65 -159 0 -112 2 -124 19 -134 24 -12 160 -13 179 -1 9 5 17 44 23 112 11 143 12 137 -16 164 -24 25 -58 29 -140 18z"/> <path d="M3739 3893 c-15 -17 -20 -232 -7 -265 6 -15 21 -18 91 -18 56 0 88 4 95 13 5 6 13 65 17 130 10 152 6 157 -105 157 -60 0 -81 -4 -91 -17z"/> <path d="M4306 3891 c-16 -17 -18 -36 -15 -145 3 -84 8 -129 17 -138 15 -15 151 -23 170 -10 9 6 17 48 23 125 8 96 7 123 -5 152 l-15 35 -79 0 c-65 0 -82 -3 -96 -19z"/> <path d="M3723 3193 c-10 -3 -13 -39 -13 -129 0 -146 2 -148 115 -159 60 -6 74 -4 93 11 20 17 24 31 29 126 5 90 3 111 -11 132 -16 25 -20 26 -109 25 -50 0 -98 -3 -104 -6z"/> <path d="M4284 3175 c-14 -22 -16 -43 -11 -136 3 -62 11 -117 18 -125 8 -10 35 -14 101 -14 l89 0 13 33 c8 17 17 70 21 117 5 75 4 89 -14 118 l-21 32 -90 0 c-85 0 -90 -1 -106 -25z"/> <path d="M4873 3185 c-22 -15 -23 -23 -23 -140 0 -148 -2 -145 119 -145 109 0 113 5 109 171 l-3 124 -90 3 c-69 2 -95 -1 -112 -13z"/> </g> </svg> 